#!OML:ASF H:\Dans Jumps\Project 1\Capture day 1\Session 1\subject.ASF
:FULLY-SPECIFIED
:DEGREES
90
root 0.398933 17.6661 -13.5548 5.83558 -0.441837 -0.870786
lowerback -5.10865 -0.764334 -0.478545
upperback 2.55199 -1.05661 1.35716
thorax 5.55028 -0.567391 1.57416
lowerneck -14.0091 -0.0959442 -2.71092
upperneck 14.3914 -0.381303 4.8433
head 6.7066 0.0873174 1.96978
rclavicle 8.44835e-015 -7.55382e-015
rhumerus -23.1951 -15.835 -81.4011
rradius 23.3611
rwrist 35.2224
rhand -18.3437 -27.0252
rfingers 7.12502
rthumb 7.93858 -56.8561
lclavicle 8.44835e-015 -7.55382e-015
lhumerus -20.9759 -7.63063 93.3874
lradius 20.9681
lwrist 3.53293
lhand -24.932 -3.41502
lfingers 7.12502
lthumb 1.57727 26.5589
rfemur -9.04455 -4.2036 18.6558
rtibia 18.3536
rfoot -13.61 -6.37033
rtoes 13.9052
lfemur -5.9654 7.1662 -18.302
ltibia 12.5748
lfoot -9.39327 6.91925
ltoes 5.30547
91
root 0.39946 17.6664 -13.5626 5.84921 -0.439982 -0.879869
lowerback -5.02252 -0.767959 -0.468704
upperback 2.58093 -1.06268 1.36516
thorax 5.53161 -0.570297 1.57719
lowerneck -14.0343 -0.0899097 -2.71187
upperneck 14.598 -0.369234 4.78339
head 6.77672 0.0893552 1.95404
rclavicle -5.96354e-016 -1.5704e-014
rhumerus -23.2112 -15.7203 -81.4013
rradius 23.4637
rwrist 35.0158
rhand -18.3207 -27.0107
rfingers 7.12502
rthumb 7.9608 -56.8408
lclavicle -5.96354e-016 -1.5704e-014
lhumerus -20.8651 -7.5024 93.2115
lradius 21.0217
lwrist 3.56535
lhand -24.9117 -3.36059
lfingers 7.12502
lthumb 1.59681 26.6132
rfemur -9.09788 -4.18402 18.6684
rtibia 18.3707
rfoot -13.5913 -6.38863
rtoes 13.922
lfemur -6.04393 7.16378 -18.2988
ltibia 12.6365
lfoot -9.38867 6.91924
ltoes 5.3013
92
root 0.399924 17.6669 -13.5708 5.86397 -0.443832 -0.889039
lowerback -4.93318 -0.770051 -0.459627
upperback 2.61335 -1.06662 1.37243
thorax 5.51466 -0.572188 1.58013
lowerneck -14.0654 -0.0833529 -2.71073
upperneck 14.8167 -0.357166 4.72464
head 6.85187 0.0916386 1.93849
rclavicle -1.38652e-014 5.76476e-015
rhumerus -23.229 -15.5552 -81.4179
rradius 23.5912
rwrist 34.7565
rhand -18.3014 -26.9957
rfingers 7.12502
rthumb 7.97946 -56.8251
lclavicle -1.38652e-014 5.76476e-015
lhumerus -20.7578 -7.38097 93.0312
lradius 21.0883
lwrist 3.61119
lhand -24.9332 -3.35136
lfingers 7.12502
lthumb 1.57604 26.6226
rfemur -9.15574 -4.16316 18.6812
rtibia 18.3885
rfoot -13.5694 -6.40467
rtoes 13.9301
lfemur -6.12815 7.16544 -18.2961
ltibia 12.7048
lfoot -9.38331 6.92249
ltoes 5.29177
93
root 0.400318 17.6673 -13.5795 5.88098 -0.453047 -0.900529
lowerback -4.84182 -0.769789 -0.449151
upperback 2.64948 -1.06754 1.38
thorax 5.50034 -0.572573 1.5829
lowerneck -14.102 -0.0799986 -2.71389
upperneck 15.0476 -0.349261 4.6697
head 6.93225 0.092027 1.92463
rclavicle 1.05853e-014 -5.1684e-015
rhumerus -23.2452 -15.358 -81.4452
rradius 23.7345
rwrist 34.4672
rhand -18.2894 -26.9808
rfingers 7.12502
rthumb 7.99105 -56.8098
lclavicle 1.05853e-014 -5.1684e-015
lhumerus -20.6528 -7.27248 92.8508
lradius 21.1622
lwrist 3.6603
lhand -24.9705 -3.36494
lfingers 7.12502
lthumb 1.54005 26.6092
rfemur -9.21957 -4.14111 18.6971
rtibia 18.4071
rfoot -13.5436 -6.41729
rtoes 13.9301
lfemur -6.21851 7.16858 -18.2912
ltibia 12.7785
lfoot -9.37791 6.9299
ltoes 5.28708
